<mxfile host="app.diagrams.net" agent="Mozilla/5.0 (Windows NT 10.0; Win64; x64) AppleWebKit/537.36 (KHTML, like Gecko) Chrome/130.0.0.0 Safari/537.36" version="24.8.3">
  <diagram name="Страница — 1" id="eGG7u2F5X1_JKZ_23Y03">
    <mxGraphModel dx="1434" dy="780" grid="1" gridSize="10" guides="1" tooltips="1" connect="1" arrows="1" fold="1" page="1" pageScale="1" pageWidth="827" pageHeight="1169" math="0" shadow="0">
      <root>
        <mxCell id="0" />
        <mxCell id="1" parent="0" />
        <mxCell id="WMbwoOML2_NiiYZ5Txhe-3" style="edgeStyle=orthogonalEdgeStyle;rounded=0;orthogonalLoop=1;jettySize=auto;html=1;exitX=0.5;exitY=1;exitDx=0;exitDy=0;entryX=0.5;entryY=0;entryDx=0;entryDy=0;" edge="1" parent="1" source="WMbwoOML2_NiiYZ5Txhe-1" target="WMbwoOML2_NiiYZ5Txhe-2">
          <mxGeometry relative="1" as="geometry" />
        </mxCell>
        <mxCell id="WMbwoOML2_NiiYZ5Txhe-1" value="start" style="rounded=1;whiteSpace=wrap;html=1;" vertex="1" parent="1">
          <mxGeometry x="225" y="80" width="120" height="60" as="geometry" />
        </mxCell>
        <mxCell id="WMbwoOML2_NiiYZ5Txhe-5" style="edgeStyle=orthogonalEdgeStyle;rounded=0;orthogonalLoop=1;jettySize=auto;html=1;entryX=0.496;entryY=0.163;entryDx=0;entryDy=0;entryPerimeter=0;" edge="1" parent="1" source="WMbwoOML2_NiiYZ5Txhe-2" target="WMbwoOML2_NiiYZ5Txhe-4">
          <mxGeometry relative="1" as="geometry" />
        </mxCell>
        <mxCell id="WMbwoOML2_NiiYZ5Txhe-2" value="print(&quot;Открываем машину&quot;)" style="rounded=0;whiteSpace=wrap;html=1;" vertex="1" parent="1">
          <mxGeometry x="190" y="200" width="190" height="60" as="geometry" />
        </mxCell>
        <mxCell id="WMbwoOML2_NiiYZ5Txhe-7" style="edgeStyle=orthogonalEdgeStyle;rounded=0;orthogonalLoop=1;jettySize=auto;html=1;exitX=0.5;exitY=1;exitDx=0;exitDy=0;entryX=0.5;entryY=0;entryDx=0;entryDy=0;" edge="1" parent="1" source="WMbwoOML2_NiiYZ5Txhe-4">
          <mxGeometry relative="1" as="geometry">
            <mxPoint x="285" y="450" as="targetPoint" />
          </mxGeometry>
        </mxCell>
        <mxCell id="WMbwoOML2_NiiYZ5Txhe-4" value="&lt;div style=&quot;color: rgb(59, 59, 59); background-color: rgb(255, 255, 255); font-family: Consolas, &amp;quot;Courier New&amp;quot;, monospace; font-size: 14px; line-height: 19px; white-space: pre;&quot;&gt;&lt;span style=&quot;color: #001080;&quot;&gt;answer&lt;/span&gt; &lt;span style=&quot;color: #000000;&quot;&gt;=&lt;/span&gt; &lt;span style=&quot;color: #267f99;&quot;&gt;int&lt;/span&gt;(&lt;span style=&quot;color: #795e26;&quot;&gt;input&lt;/span&gt;(&lt;span style=&quot;color: #a31515;&quot;&gt;&quot;Какая у вас машина &lt;/span&gt;&lt;span style=&quot;color: #ee0000;&quot;&gt;\n&lt;/span&gt;&lt;span style=&quot;color: #a31515;&quot;&gt;1. автомат&lt;/span&gt;&lt;span style=&quot;color: #ee0000;&quot;&gt;\n&lt;/span&gt;&lt;span style=&quot;color: #a31515;&quot;&gt;2. Механика&quot;&lt;/span&gt;))&lt;/div&gt;" style="html=1;strokeWidth=2;shape=manualInput;whiteSpace=wrap;rounded=1;size=26;arcSize=11;" vertex="1" parent="1">
          <mxGeometry x="170" y="320" width="560" height="80" as="geometry" />
        </mxCell>
        <mxCell id="WMbwoOML2_NiiYZ5Txhe-9" style="edgeStyle=orthogonalEdgeStyle;rounded=0;orthogonalLoop=1;jettySize=auto;html=1;" edge="1" parent="1" source="WMbwoOML2_NiiYZ5Txhe-8">
          <mxGeometry relative="1" as="geometry">
            <mxPoint x="465" y="500" as="targetPoint" />
          </mxGeometry>
        </mxCell>
        <mxCell id="WMbwoOML2_NiiYZ5Txhe-8" value="if answer == 1&lt;div&gt;else:&lt;/div&gt;" style="strokeWidth=2;html=1;shape=mxgraph.flowchart.decision;whiteSpace=wrap;" vertex="1" parent="1">
          <mxGeometry x="220" y="450" width="130" height="100" as="geometry" />
        </mxCell>
        <mxCell id="WMbwoOML2_NiiYZ5Txhe-10" value="print(&#39;Выжимаем сцепление и включаем первую передачу&#39;)" style="rounded=0;whiteSpace=wrap;html=1;" vertex="1" parent="1">
          <mxGeometry x="475" y="470" width="265" height="60" as="geometry" />
        </mxCell>
        <mxCell id="WMbwoOML2_NiiYZ5Txhe-11" value="print(&#39;Включаем драйв&#39;)" style="rounded=0;whiteSpace=wrap;html=1;" vertex="1" parent="1">
          <mxGeometry x="160" y="610" width="265" height="60" as="geometry" />
        </mxCell>
        <mxCell id="WMbwoOML2_NiiYZ5Txhe-12" style="edgeStyle=orthogonalEdgeStyle;rounded=0;orthogonalLoop=1;jettySize=auto;html=1;exitX=0.5;exitY=1;exitDx=0;exitDy=0;exitPerimeter=0;entryX=0.475;entryY=0.05;entryDx=0;entryDy=0;entryPerimeter=0;" edge="1" parent="1" source="WMbwoOML2_NiiYZ5Txhe-8" target="WMbwoOML2_NiiYZ5Txhe-11">
          <mxGeometry relative="1" as="geometry" />
        </mxCell>
        <mxCell id="WMbwoOML2_NiiYZ5Txhe-13" value="1" style="text;html=1;align=center;verticalAlign=middle;resizable=0;points=[];autosize=1;strokeColor=none;fillColor=none;" vertex="1" parent="1">
          <mxGeometry x="235" y="558" width="30" height="30" as="geometry" />
        </mxCell>
        <mxCell id="WMbwoOML2_NiiYZ5Txhe-14" value="2" style="text;html=1;align=center;verticalAlign=middle;resizable=0;points=[];autosize=1;strokeColor=none;fillColor=none;" vertex="1" parent="1">
          <mxGeometry x="384" y="460" width="30" height="30" as="geometry" />
        </mxCell>
      </root>
    </mxGraphModel>
  </diagram>
</mxfile>
